<?xml version="1.0" encoding="UTF-8" standalone="no"?>
<!-- Created with Inkscape (http://www.inkscape.org/) -->

<svg
   width="256"
   height="256"
   viewBox="0 0 67.733332 67.733332"
   version="1.1"
   id="svg1"
   inkscape:version="1.3 (0e150ed6c4, 2023-07-21)"
   sodipodi:docname="plain_logo.svg"
   inkscape:export-filename="logo_1024.png"
   inkscape:export-xdpi="384"
   inkscape:export-ydpi="384"
   xmlns:inkscape="http://www.inkscape.org/namespaces/inkscape"
   xmlns:sodipodi="http://sodipodi.sourceforge.net/DTD/sodipodi-0.dtd"
   xmlns="http://www.w3.org/2000/svg"
   xmlns:svg="http://www.w3.org/2000/svg"
   xmlns:rdf="http://www.w3.org/1999/02/22-rdf-syntax-ns#"
   xmlns:cc="http://creativecommons.org/ns#"
   xmlns:dc="http://purl.org/dc/elements/1.1/">
  <title
     id="title1">BioParallel logo</title>
  <sodipodi:namedview
     id="namedview1"
     pagecolor="#ffffff"
     bordercolor="#000000"
     borderopacity="0.25"
     inkscape:showpageshadow="2"
     inkscape:pageopacity="0.0"
     inkscape:pagecheckerboard="0"
     inkscape:deskcolor="#d1d1d1"
     inkscape:document-units="px"
     showborder="true"
     showgrid="true"
     inkscape:zoom="1.8101934"
     inkscape:cx="102.19903"
     inkscape:cy="163.24223"
     inkscape:window-width="1920"
     inkscape:window-height="1027"
     inkscape:window-x="-8"
     inkscape:window-y="-8"
     inkscape:window-maximized="1"
     inkscape:current-layer="layer1">
    <inkscape:grid
       id="grid1"
       units="px"
       originx="0"
       originy="0"
       spacingx="13.229167"
       spacingy="13.229167"
       empcolor="#0099e5"
       empopacity="0.30196078"
       color="#0099e5"
       opacity="0.14901961"
       empspacing="5"
       dotted="false"
       gridanglex="30"
       gridanglez="30"
       visible="true" />
  </sodipodi:namedview>
  <defs
     id="defs1" />
  <g
     inkscape:label="Layer 1"
     inkscape:groupmode="layer"
     id="layer1">
    <path
       id="path88"
       style="fill:none;stroke:#000000;stroke-width:7.9685;stroke-linecap:round;stroke-linejoin:round"
       d="m 23.90589,33.86571 a 9.9607796,9.9604877 0 0 1 9.96078,-9.96048 9.9607796,9.9604877 0 0 1 9.96078,9.96048" />
    <path
       id="path86"
       style="fill:none;stroke:#000000;stroke-width:7.9685;stroke-linecap:round;stroke-linejoin:round"
       d="m 13.94511,33.86571 c 0,-11.00204 8.91919,-19.92096 19.92156,-19.92097 m 10.36799,2.90712 c 5.72929,3.49861 9.55358,9.80965 9.55358,17.01385"
       sodipodi:nodetypes="cccc" />
    <path
       id="path84"
       style="fill:none;stroke:#000000;stroke-width:7.9685;stroke-linecap:round;stroke-linejoin:round"
       d="m 3.98433,33.86571 c 0,-6.70976 2.21158,-12.903 5.94556,-17.89057 m 0,0 C 12.3775,12.7058 15.47925,9.9545201 19.04104,7.9153701 m 14.82563,-3.93112 c 16.50356,0 29.88235,13.3783899 29.88235,29.8814599"
       sodipodi:nodetypes="cccccc" />
    <path
       id="path96"
       style="color:#000000;fill:#000000;stroke-width:0.250976;stroke-linecap:round;stroke-linejoin:round;-inkscape-stroke:none"
       d="M 3.98418,29.8815 A 3.9843114,3.9841947 0 0 0 0.0786,33.08144 33.866635,33.865647 0 0 0 0,34.1793 33.866635,33.865647 0 0 0 3.15866,48.42733 3.9843114,3.9841947 0 0 0 5.68906,46.08001 C 7.19569,42.184 7.96849,38.04285 7.96849,33.86569 A 3.9843114,3.9841947 0 0 0 3.98418,29.8815 Z" />
    <path
       id="path120"
       style="color:#000000;fill:#000000;stroke-width:0.250976;stroke-linecap:round;stroke-linejoin:round;-inkscape-stroke:none"
       d="m 13.94496,29.8815 a 3.9843114,3.9841947 0 0 0 -3.98431,3.98419 c 0,6.29873 -1.6616,12.47529 -4.80024,17.91604 a 33.866635,33.865647 0 0 0 5.22837,6.38003 3.9843114,3.9841947 0 0 0 0.72825,-0.82913 c 4.44955,-7.018 6.81224,-15.15731 6.81224,-23.46694 A 3.9843114,3.9841947 0 0 0 13.94496,29.8815 Z" />
    <path
       id="path118"
       style="color:#000000;fill:#000000;stroke-width:0.250976;stroke-linecap:round;stroke-linejoin:round;-inkscape-stroke:none"
       d="m 22.89047,39.12518 a 3.9843114,3.9841947 0 0 0 -3.76461,3.24169 c -1.165,6.16933 -3.59305,12.0628 -7.16255,17.30038 a 33.866635,33.865647 0 0 0 6.66529,4.36731 c 4.14544,-6.11801 6.96889,-12.99348 8.32763,-20.1888 a 3.9843114,3.9841947 0 0 0 -3.17604,-4.65419 3.9843114,3.9841947 0 0 0 -0.88972,-0.0664 z" />
    <path
       id="path116"
       style="color:#000000;fill:#000000;stroke-width:0.250976;stroke-linecap:round;stroke-linejoin:round;-inkscape-stroke:none"
       d="m 33.86652,29.8815 a 3.9843114,3.9841947 0 0 0 -3.98431,3.98419 c -10e-6,10.77017 -3.11795,21.30937 -8.97755,30.34616 a 3.9843114,3.9841947 0 0 0 -0.35329,0.74211 33.866635,33.865647 0 0 0 7.84891,2.29402 C 34.5687,57.21506 37.85083,45.66293 37.85083,33.86569 A 3.9843114,3.9841947 0 0 0 33.86652,29.8815 Z" />
    <path
       id="path114"
       style="color:#000000;fill:#000000;stroke-width:0.250976;stroke-linecap:round;stroke-linejoin:round;-inkscape-stroke:none"
       d="m 43.8273,29.8815 a 3.9843114,3.9841947 0 0 0 -3.98432,3.98419 c 0,3.99856 -0.36478,7.97326 -1.08193,11.87711 a 3.9843114,3.9841947 0 0 0 3.19912,4.63863 3.9843114,3.9841947 0 0 0 4.63863,-3.19851 c 0.80409,-4.37704 1.21281,-8.83412 1.21281,-13.31723 A 3.9843114,3.9841947 0 0 0 43.8273,29.8815 Z m -3.17604,21.44592 a 3.9843114,3.9841947 0 0 0 -1.03667,0.0834 3.9843114,3.9841947 0 0 0 -2.95698,2.67053 c -1.29786,4.01596 -2.98436,7.91236 -5.04459,11.63249 a 3.9843114,3.9841947 0 0 0 -0.47793,1.82414 33.866635,33.865647 0 0 0 2.73143,0.19533 33.866635,33.865647 0 0 0 6.00565,-0.60269 c 1.73194,-3.42419 3.19407,-6.96701 4.36782,-10.59897 a 3.9843114,3.9841947 0 0 0 -2.56567,-5.01643 3.9843114,3.9841947 0 0 0 -1.02306,-0.18779 z" />
    <path
       id="path112"
       style="color:#000000;fill:#000000;stroke-width:0.250976;stroke-linecap:round;stroke-linejoin:round;-inkscape-stroke:none"
       d="m 53.78807,29.8815 a 3.9843114,3.9841947 0 0 0 -3.98431,3.98419 c 0,10.10925 -2.02462,20.11602 -5.95493,29.43 a 3.9843114,3.9841947 0 0 0 -0.0537,2.92136 33.866635,33.865647 0 0 0 9.18583,-4.46225 c 3.16326,-8.94638 4.79142,-18.37589 4.79142,-27.88911 A 3.9843114,3.9841947 0 0 0 53.78807,29.8815 Z" />
    <path
       id="path110"
       style="color:#000000;fill:#000000;stroke-width:0.250976;stroke-linecap:round;stroke-linejoin:round;-inkscape-stroke:none"
       d="m 63.74885,29.8815 a 3.9843114,3.9841947 0 0 0 -3.98432,3.98419 c 0,6.2011 -0.67345,12.3839 -2.00837,18.43961 a 3.9843114,3.9841947 0 0 0 1.44342,3.99938 33.866635,33.865647 0 0 0 8.53358,-22.43704 v -0.002 a 3.9843114,3.9841947 0 0 0 -3.98431,-3.98419 z" />
  </g>
  <metadata
     id="metadata1">
    <rdf:RDF>
      <cc:Work
         rdf:about="">
        <dc:title>BioParallel logo</dc:title>
      </cc:Work>
    </rdf:RDF>
  </metadata>
</svg>
